<svg width="68" height="68" viewBox="0 0 68 68" fill="none" xmlns="http://www.w3.org/2000/svg">
<rect opacity="0.4" width="68" height="68" rx="16" fill="#453AA7"/>
<path d="M37.7535 16.7783C37.7535 19.0312 35.9355 20.8504 33.6839 20.8504C31.4323 20.8504 29.6143 19.0312 29.6143 16.7783C29.6143 14.5254 31.4323 12.7063 33.6839 12.7063C35.9355 12.7063 37.7535 14.5254 37.7535 16.7783Z" fill="white"/>
<path d="M39.7957 53.4685C38.0616 53.4685 36.5792 53.2166 35.3904 52.7408C34.2157 52.265 33.2507 51.5794 32.5375 50.6978C31.8103 49.8162 31.2928 48.7387 30.9712 47.4794C30.6495 46.206 30.4817 44.7647 30.4817 43.1974V29.624H24.7478C23.4333 29.638 22.3145 28.5325 22.3145 27.1751C22.3145 25.8178 23.4333 24.6144 24.7478 24.6144H42.3969C43.7115 24.6144 44.8303 25.7898 44.8303 27.1332C44.8303 28.4625 43.7115 29.638 42.3829 29.638H36.8449V42.7216C36.8449 44.2189 37.1665 45.8142 37.7959 46.7937C38.4671 47.8292 39.544 48.3609 40.9984 48.3609C42.1871 48.3609 43.1661 48.193 43.9073 47.8712C44.229 47.7172 44.5646 47.6473 44.9142 47.6473C46.2008 47.6473 47.2357 48.6968 47.2357 49.9701C47.2357 50.8377 46.7602 51.6214 46.0051 52.0272C45.4736 52.307 44.9422 52.5449 44.4247 52.7268C43.0542 53.2306 41.5019 53.4685 39.7957 53.4685Z" fill="white"/>
</svg>
